<?xml version="1.0" encoding="UTF-8"?>
<!DOCTYPE svg PUBLIC "-//W3C//DTD SVG 1.1//EN" "http://www.w3.org/Graphics/SVG/1.1/DTD/svg11.dtd">

<svg xmlns="http://www.w3.org/2000/svg" xml:space="preserve" width="77px" height="77px" version="1.1"
     style="shape-rendering:geometricPrecision; text-rendering:geometricPrecision; image-rendering:optimizeQuality; fill-rule:evenodd; clip-rule:evenodd"
     viewBox="0 0 28.221 28.221"
>
 <defs>
  <style type="text/css">
   <![CDATA[
    .fil1 {fill:#FEFEFE}
    .fil0 {fill:url(#id0)}
   ]]>
  </style>
     <linearGradient id="id0" gradientUnits="userSpaceOnUse" x1="16.229" y1="0.143" x2="11.992" y2="28.078">
   <stop offset="0" style="stop-opacity:1; stop-color:#13DFE1"/>
         <stop offset="1" style="stop-opacity:1; stop-color:#037DEE"/>
  </linearGradient>
 </defs>
    <g id="Layer_x0020_1">
  <metadata id="Layer"/>
        <rect class="fil0" width="28.221" height="28.221" rx="5.863" ry="6.753"/>
        <path class="fil1"
              d="M6.975 15.087l3.224 -0.012c0.56,1.667 2.552,2.365 4.14,1.257 0.569,-0.396 0.773,-1.066 0.932,-1.25 1.854,-0.066 4.219,-0.006 6.172,-0.008 0.331,0 0.638,-0.016 0.868,-0.177 0.16,-0.111 0.344,-0.402 0.347,-0.72 0.008,-0.641 -0.476,-0.936 -1.114,-0.932 -0.697,0.004 -1.395,0.001 -2.092,0.001 -1.388,0.001 -2.796,0.023 -4.181,-0.002 -0.008,-0.01 -0.019,-0.039 -0.022,-0.032l-0.149 -0.305c-0.053,-0.105 -0.141,-0.239 -0.214,-0.335 -0.49,-0.648 -1.218,-1.121 -2.154,-1.113 -0.652,0.006 -1.223,0.244 -1.629,0.542 -0.129,0.094 -0.128,0.107 -0.263,0.235 -0.374,0.355 -0.412,0.492 -0.647,0.989l-3.224 0.02c0.064,-1.992 0.978,-3.43 2.545,-4.426 1.648,-1.047 4.124,-0.775 6.254,-0.776l5.227 0.001c1.275,0 1.165,-0.322 1.847,-1.627 0.19,-0.362 0.439,-0.81 0.582,-1.161 0.21,-0.52 -0.097,-1.005 -0.474,-1.144 -0.29,-0.107 -1.379,-0.06 -1.756,-0.06 -2.323,0.001 -4.646,0.001 -6.969,0 -2.612,-0.002 -3.861,-0.031 -6.013,1.027 -1.492,0.733 -2.852,2.024 -3.631,3.337 -1.111,1.872 -1.356,3.134 -1.348,5.662 0.009,2.617 0.134,3.677 1.271,5.689 0.778,1.377 2.106,2.629 3.616,3.406 2.023,1.04 3.503,1.009 5.956,0.991 0.868,-0.006 8.363,0.046 8.741,-0.013 0.429,-0.068 0.783,-0.506 0.641,-1.039l-1.197 -2.286c-0.252,-0.435 -0.63,-0.471 -1.266,-0.47l-5.276 -0.002c-2.21,-0.009 -4.508,0.292 -6.236,-0.789 -1.49,-0.933 -2.57,-2.599 -2.508,-4.478zm5.605 -2.024c-1.518,0.263 -1.109,2.455 0.347,2.218 0.554,-0.091 1.024,-0.625 0.916,-1.304 -0.084,-0.533 -0.642,-1.022 -1.263,-0.914z"/>
 </g>
</svg>
