<?xml version="1.0" encoding="UTF-8"?>
<!DOCTYPE svg PUBLIC "-//W3C//DTD SVG 1.1//EN" "http://www.w3.org/Graphics/SVG/1.1/DTD/svg11.dtd">
<!-- Creator: CorelDRAW -->
<svg xmlns="http://www.w3.org/2000/svg" xml:space="preserve" width="64px" height="64px" version="1.1"
     style="shape-rendering:geometricPrecision; text-rendering:geometricPrecision; image-rendering:optimizeQuality; fill-rule:evenodd; clip-rule:evenodd"
     viewBox="0 0 25 25"
>
 <defs>
  <style type="text/css">
   <![CDATA[
    .str0 {stroke:#2B2A29;stroke-width:0.24;stroke-miterlimit:22.9256}
    .fil0 {fill:#FEFEFE}
    .fil1 {fill:#161616}
   ]]>
  </style>
 </defs>
    <g id="Layer_x0020_1">
  <metadata id="CorelCorpID_0Corel-Layer"/>
        <g id="_2291551824">
   <rect class="fil0" width="25" height="25" rx="5.19" ry="5.98"/>
            <path class="fil1 str0"
                  d="M6.18 13.36l2.85 -0.01c0.5,1.48 2.26,2.1 3.67,1.12 0.51,-0.35 0.69,-0.95 0.83,-1.11 1.64,-0.06 3.73,-0.01 5.47,-0.01 0.29,0 0.56,-0.01 0.76,-0.15 0.15,-0.1 0.31,-0.36 0.31,-0.64 0.01,-0.57 -0.42,-0.83 -0.99,-0.83 -0.61,0.01 -1.23,0 -1.85,0 -1.23,0 -2.48,0.02 -3.7,0 -0.01,-0.01 -0.02,-0.03 -0.02,-0.03l-0.13 -0.27c-0.05,-0.09 -0.13,-0.21 -0.19,-0.29 -0.44,-0.58 -1.08,-1 -1.91,-0.99 -0.58,0.01 -1.09,0.22 -1.44,0.48 -0.12,0.08 -0.12,0.1 -0.24,0.21 -0.33,0.31 -0.36,0.43 -0.57,0.88l-2.86 0.01c0.06,-1.76 0.87,-3.04 2.26,-3.92 1.46,-0.93 3.65,-0.68 5.54,-0.69l4.63 0.01c1.13,0 1.03,-0.29 1.63,-1.45 0.17,-0.32 0.39,-0.71 0.52,-1.02 0.19,-0.46 -0.09,-0.89 -0.42,-1.02 -0.26,-0.09 -1.22,-0.05 -1.56,-0.05 -2.05,0 -4.11,0 -6.17,0 -2.31,0 -3.42,-0.03 -5.33,0.91 -1.32,0.65 -2.52,1.79 -3.21,2.96 -0.99,1.65 -1.2,2.77 -1.2,5.01 0.01,2.32 0.12,3.26 1.13,5.04 0.69,1.22 1.87,2.33 3.2,3.02 1.79,0.92 3.11,0.89 5.28,0.88 0.77,-0.01 7.41,0.04 7.74,-0.02 0.38,-0.06 0.7,-0.44 0.57,-0.92l-1.06 -2.02c-0.22,-0.39 -0.56,-0.42 -1.12,-0.42l-4.68 0c-1.95,-0.01 -3.99,0.26 -5.52,-0.7 -1.32,-0.83 -2.28,-2.3 -2.22,-3.97zm4.96 -1.79c-1.34,0.23 -0.98,2.18 0.31,1.97 0.49,-0.08 0.91,-0.56 0.81,-1.16 -0.07,-0.47 -0.57,-0.9 -1.12,-0.81z"/>
  </g>
 </g>
</svg>
