<?xml version="1.0" encoding="UTF-8"?>
<!DOCTYPE svg PUBLIC "-//W3C//DTD SVG 1.1//EN" "http://www.w3.org/Graphics/SVG/1.1/DTD/svg11.dtd">

<svg xmlns="http://www.w3.org/2000/svg" xml:space="preserve" width="96px" height="96px" version="1.1"
     style="shape-rendering:geometricPrecision; text-rendering:geometricPrecision; image-rendering:optimizeQuality; fill-rule:evenodd; clip-rule:evenodd"
     viewBox="0 0 32.214 32.214"
>
 <defs>
  <style type="text/css">
   <![CDATA[
    .fil0 {fill:url(#id0)}
   ]]>
  </style>
     <linearGradient id="id0" gradientUnits="userSpaceOnUse" x1="19.284" y1="0.316" x2="12.93" y2="31.898">
   <stop offset="0" style="stop-opacity:1; stop-color:#13DFE1"/>
         <stop offset="1" style="stop-opacity:1; stop-color:#037DEE"/>
  </linearGradient>
 </defs>
    <g id="Layer_x0020_1">
  <metadata id="Layer"/>
        <path class="fil0"
              d="M7.708 0l16.798 0c4.24,0 7.708,3.469 7.708,7.708l0 16.798c0,4.24 -3.468,7.708 -7.708,7.708l-16.798 0c-4.239,0 -7.708,-3.468 -7.708,-7.708l0 -16.798c0,-4.239 3.469,-7.708 7.708,-7.708zm0.254 17.221l3.68 -0.013c0.639,1.903 2.913,2.7 4.726,1.435 0.65,-0.452 0.882,-1.217 1.063,-1.427 2.118,-0.076 4.817,-0.007 7.047,-0.009 0.378,0 0.728,-0.019 0.99,-0.202 0.183,-0.127 0.393,-0.459 0.397,-0.821 0.008,-0.733 -0.545,-1.069 -1.272,-1.065 -0.796,0.004 -1.592,0.001 -2.388,0.002 -1.585,0 -3.192,0.025 -4.774,-0.002 -0.009,-0.012 -0.021,-0.046 -0.024,-0.037l-0.171 -0.348c-0.06,-0.121 -0.16,-0.273 -0.243,-0.383 -0.56,-0.74 -1.391,-1.279 -2.459,-1.27 -0.745,0.006 -1.397,0.278 -1.86,0.618 -0.147,0.108 -0.146,0.123 -0.3,0.268 -0.427,0.405 -0.47,0.562 -0.738,1.129l-3.681 0.023c0.073,-2.273 1.116,-3.915 2.906,-5.052 1.88,-1.195 4.707,-0.885 7.139,-0.886l5.966 0.001c1.456,0 1.33,-0.367 2.109,-1.856 0.216,-0.414 0.5,-0.926 0.663,-1.327 0.241,-0.592 -0.11,-1.146 -0.541,-1.305 -0.331,-0.122 -1.574,-0.069 -2.004,-0.069 -2.651,0.002 -5.303,0.002 -7.955,0 -2.982,-0.001 -4.408,-0.035 -6.864,1.172 -1.703,0.838 -3.255,2.311 -4.145,3.81 -1.269,2.137 -1.548,3.578 -1.538,6.463 0.009,2.987 0.153,4.197 1.45,6.494 0.888,1.572 2.405,3.001 4.128,3.888 2.309,1.187 3.999,1.152 6.799,1.132 0.991,-0.008 9.546,0.051 9.978,-0.016 0.49,-0.077 0.893,-0.578 0.731,-1.185l-1.365 -2.61c-0.289,-0.497 -0.72,-0.538 -1.446,-0.537l-6.023 -0.002c-2.523,-0.01 -5.146,0.334 -7.118,-0.901 -1.701,-1.064 -2.933,-2.966 -2.863,-5.112zm6.399 -2.31c-1.733,0.3 -1.266,2.803 0.396,2.532 0.631,-0.103 1.169,-0.713 1.045,-1.489 -0.096,-0.607 -0.733,-1.166 -1.441,-1.043z"/>
 </g>
</svg>
