<?xml version="1.0" encoding="UTF-8"?>
<!DOCTYPE svg PUBLIC "-//W3C//DTD SVG 1.1//EN" "http://www.w3.org/Graphics/SVG/1.1/DTD/svg11.dtd">
<!-- Creator: CorelDRAW -->
<svg xmlns="http://www.w3.org/2000/svg" xml:space="preserve" width="325px" height="100px" version="1.1"
     style="shape-rendering:geometricPrecision; text-rendering:geometricPrecision; image-rendering:optimizeQuality; fill-rule:evenodd; clip-rule:evenodd"
     viewBox="0 0 155.77 48.04"
>
 <defs>
  <style type="text/css">
   <![CDATA[
    .fil1 {fill:#FEFEFE}
    .fil0 {fill:url(#id0)}
   ]]>
  </style>
     <linearGradient id="id0" gradientUnits="userSpaceOnUse" x1="28.87" y1="0.46" x2="19.45" y2="47.57">
   <stop offset="0" style="stop-opacity:1; stop-color:#13DFE1"/>
         <stop offset="1" style="stop-opacity:1; stop-color:#037DEE"/>
  </linearGradient>
 </defs>
    <g id="Layer_x0020_1">
  <metadata id="CorelCorpID_0Corel-Layer"/>
        <path class="fil0"
              d="M8.93 26.35l7.69 -0.03c1.33,3.97 6.08,5.64 9.87,3 1.36,-0.95 1.85,-2.55 2.22,-2.99 4.43,-0.15 10.07,-0.01 14.73,-0.01 0.79,-0.01 1.52,-0.04 2.07,-0.43 0.38,-0.26 0.82,-0.96 0.83,-1.71 0.01,-1.53 -1.14,-2.24 -2.66,-2.23 -1.66,0.01 -3.33,0.01 -4.99,0.01 -3.31,0 -6.67,0.05 -9.98,-0.01 -0.01,-0.02 -0.04,-0.09 -0.05,-0.07l-0.35 -0.73c-0.13,-0.25 -0.34,-0.57 -0.51,-0.8 -1.17,-1.55 -2.91,-2.68 -5.14,-2.66 -1.56,0.02 -2.92,0.58 -3.89,1.29 -0.3,0.23 -0.3,0.26 -0.62,0.57 -0.89,0.84 -0.99,1.17 -1.55,2.36l-7.69 0.04c0.16,-4.75 2.33,-8.18 6.07,-10.55 3.93,-2.5 9.84,-1.85 14.92,-1.86l12.47 0.01c3.04,0 2.78,-0.77 4.41,-3.88 0.45,-0.87 1.04,-1.94 1.38,-2.77 0.51,-1.24 -0.23,-2.4 -1.13,-2.73 -0.69,-0.26 -3.29,-0.15 -4.18,-0.15 -5.55,0.01 -11.09,0.01 -16.63,0 -6.23,0 -9.21,-0.07 -14.34,2.45 -3.56,1.75 -6.8,4.83 -8.66,7.96 -2.66,4.47 -3.24,7.48 -3.22,13.51 0.02,6.24 0.32,8.77 3.03,13.57 1.86,3.28 5.03,6.27 8.63,8.12 4.82,2.49 8.35,2.41 14.21,2.37 2.07,-0.02 19.94,0.11 20.85,-0.03 1.02,-0.16 1.86,-1.21 1.52,-2.48l-2.85 -5.45c-0.6,-1.04 -1.5,-1.13 -3.02,-1.13l-12.59 0c-5.27,-0.02 -10.75,0.7 -14.87,-1.88 -3.56,-2.23 -6.13,-6.2 -5.98,-10.68zm13.37 -4.83c-3.62,0.63 -2.65,5.86 0.82,5.29 1.32,-0.22 2.45,-1.49 2.19,-3.11 -0.2,-1.27 -1.53,-2.44 -3.01,-2.18z"/>
        <path class="fil1"
              d="M119.3 17.96c-2.53,0.42 -3.87,1.94 -4.21,4.53 -0.23,1.77 -0.18,6.69 0.4,8.19 0.81,2.11 2.82,3.03 5.67,3.03 2.38,-0.01 6.55,0.23 8.72,-0.12 2.43,-0.4 3.82,-2.03 4.13,-4.55 0.23,-1.87 0.2,-6.55 -0.38,-8.19 -0.75,-2.12 -2.89,-3.05 -5.7,-3.03 -2.45,0.01 -6.38,-0.24 -8.63,0.14zm-29.71 1.1l-0.01 13.67c0.02,1.35 0.81,0.97 3.92,0.97l7.48 0c4.97,0 6.82,-2.25 6.82,-6.92 0.01,-8.17 -1.66,-8.97 -9.55,-8.96l-6.65 0c-1.56,0 -2.01,-0.34 -2.01,1.24zm-8.12 11.91c-0.43,-0.41 -7.55,-0.19 -8.75,-0.2 -3.35,-0.01 -5.53,0.43 -5.45,-3.5 2.23,-0.12 4.73,-0.02 6.99,-0.02 1.15,0 2.3,-0.01 3.44,-0.01 0.8,0.01 2.9,0.32 3.29,-0.27 0.4,-0.41 0.21,-1.98 0.07,-2.49 -1.08,-0.38 -11.54,-0.05 -13.76,-0.13 -0.38,-3.79 2.07,-3.59 5.18,-3.59 1.64,0.01 7.84,0.21 8.98,-0.09 0.3,-0.21 0.51,-2.51 -0.11,-2.78 -0.34,-0.15 -9.82,-0.07 -10.65,-0.07 -2.47,0 -4.2,0.42 -5.35,1.83 -1.31,1.59 -1.12,3.78 -1.11,6.06 0.01,4.53 -0.11,8 6.22,7.99 2.38,0 4.75,0 7.13,0 3.94,0 4.13,0.43 4.12,-1.22 -0.01,-0.59 0.14,-1.21 -0.24,-1.51zm39.1 -10.18c-1.84,0.18 -2.51,1.38 -2.53,3.26 -0.07,6.05 -0.34,6.73 4.9,6.72 4.61,-0.01 8.17,0.99 8.16,-3.27 -0.01,-1.48 0.21,-4.28 -0.36,-5.43 -0.74,-1.48 -2.57,-1.31 -4.47,-1.31 -1.71,0 -4.08,-0.13 -5.7,0.03zm-28.05 9.97c2.82,0.06 5.73,0.02 8.58,0.01 3.49,-0.01 3.74,-1.8 3.73,-5.06 0,-3.06 -0.29,-4.92 -3.61,-4.96 -2.88,-0.03 -5.78,0.02 -8.67,0.01l-0.03 10zm48.64 -12.05l-0.01 9.97c-0.02,5.96 5.09,5.02 9.94,5.02 1.09,0.01 3.88,0.08 4.54,-0.11 0.2,-0.6 0.18,-2.09 0.01,-2.7 -0.8,-0.24 -7.2,-0.13 -8.95,-0.12 -3.08,0.03 -2.49,-2.61 -2.5,-5.77l0.01 -6.29c0,-1.18 -0.72,-0.88 -1.78,-0.88 -0.88,0 -1.26,-0.12 -1.26,0.88z"/>
 </g>
</svg>
