<?xml version="1.0" encoding="UTF-8"?>
<!DOCTYPE svg PUBLIC "-//W3C//DTD SVG 1.1//EN" "http://www.w3.org/Graphics/SVG/1.1/DTD/svg11.dtd">
<!-- Creator: CorelDRAW -->
<svg xmlns="http://www.w3.org/2000/svg" xml:space="preserve" width="96px" height="96px" version="1.1" style="shape-rendering:geometricPrecision; text-rendering:geometricPrecision; image-rendering:optimizeQuality; fill-rule:evenodd; clip-rule:evenodd"
viewBox="0 0 850.491 850.491"
 xmlns:xlink="http://www.w3.org/1999/xlink"
 xmlns:xodm="http://www.corel.com/coreldraw/odm/2003">
 <defs>
  <style type="text/css">
   <![CDATA[
    .str0 {stroke:#2B2A29;stroke-width:8.303;stroke-miterlimit:22.9256}
    .fil1 {fill:#161616}
    .fil0 {fill:url(#id0)}
   ]]>
  </style>
  <linearGradient id="id0" gradientUnits="userSpaceOnUse" x1="489.088" y1="4.322" x2="361.407" y2="846.169">
   <stop offset="0" style="stop-opacity:1; stop-color:#13DFE1"/>
   <stop offset="1" style="stop-opacity:1; stop-color:#037DEE"/>
  </linearGradient>
 </defs>
 <g id="Layer_x0020_1">
  <metadata id="CorelCorpID_0Corel-Layer"/>
  <g id="_2267001616">
   <rect class="fil0" width="850.491" height="850.491" rx="176.693" ry="203.504"/>
   <path class="fil1 str0" d="M210.196 454.663l97.171 -0.353c16.868,50.234 76.899,71.274 124.774,37.896 17.146,-11.957 23.29,-32.15 28.069,-37.688 55.892,-1.997 127.165,-0.187 186.03,-0.237 9.972,-0.008 19.217,-0.494 26.154,-5.326 4.82,-3.359 10.354,-12.118 10.462,-21.692 0.22,-19.338 -14.368,-28.21 -33.573,-28.106 -21.011,0.112 -42.043,0.038 -63.058,0.042 -41.826,0.012 -84.263,0.672 -126.015,-0.054 -0.245,-0.299 -0.557,-1.192 -0.648,-0.963l-4.504 -9.192c-1.59,-3.184 -4.231,-7.203 -6.435,-10.117 -14.771,-19.521 -36.712,-33.769 -64.918,-33.532 -19.661,0.166 -36.874,7.344 -49.096,16.32 -3.886,2.852 -3.861,3.25 -7.917,7.095 -11.267,10.686 -12.417,14.821 -19.499,29.803l-97.184 0.607c1.952,-60.023 29.476,-103.369 76.721,-133.389 49.656,-31.552 124.284,-23.357 188.483,-23.394l157.518 0.029c38.43,0.012 35.101,-9.694 55.668,-49.009 5.712,-10.918 13.222,-24.423 17.519,-35.014 6.348,-15.651 -2.91,-30.277 -14.285,-34.462 -8.744,-3.217 -41.557,-1.822 -52.903,-1.818 -70.008,0.037 -140.015,0.05 -210.022,0.004 -78.738,-0.046 -116.38,-0.922 -181.219,30.946 -44.977,22.107 -85.945,61.006 -109.434,100.57 -33.495,56.428 -40.868,94.46 -40.619,170.633 0.258,78.862 4.044,110.821 38.298,171.445 23.444,41.503 63.477,79.232 108.99,102.647 60.953,31.356 105.557,30.426 179.484,29.883 26.163,-0.191 252.039,1.365 263.439,-0.416 12.92,-2.021 23.581,-15.244 19.296,-31.285l-36.051 -68.916c-7.623,-13.102 -18.994,-14.181 -38.161,-14.161l-159.016 -0.062c-66.599,-0.253 -135.855,8.814 -187.932,-23.78 -44.911,-28.106 -77.434,-78.319 -75.587,-134.954zm168.938 -60.998c-45.745,7.929 -33.424,74.013 10.454,66.848 16.677,-2.724 30.862,-18.827 27.612,-39.299 -2.549,-16.049 -19.359,-30.792 -38.066,-27.549z"/>
  </g>
 </g>
</svg>
